<mxfile host="65bd71144e">
    <diagram id="iBKpLkDJ9dkewLBrUV2D" name="otc-trade-success-case">
        <mxGraphModel dx="1152" dy="462" grid="1" gridSize="10" guides="1" tooltips="1" connect="1" arrows="1" fold="1" page="1" pageScale="1" pageWidth="850" pageHeight="1100" math="0" shadow="0">
            <root>
                <mxCell id="0"/>
                <mxCell id="1" parent="0"/>
                <mxCell id="2" value="Counter Party A" style="shape=umlActor;verticalLabelPosition=bottom;verticalAlign=top;html=1;outlineConnect=0;" parent="1" vertex="1">
                    <mxGeometry x="80" y="80" width="30" height="60" as="geometry"/>
                </mxCell>
                <mxCell id="3" value="Counter Party B" style="shape=umlActor;verticalLabelPosition=bottom;verticalAlign=top;html=1;outlineConnect=0;" parent="1" vertex="1">
                    <mxGeometry x="240" y="80" width="30" height="60" as="geometry"/>
                </mxCell>
                <mxCell id="6" style="edgeStyle=none;html=1;exitX=0.5;exitY=1;exitDx=0;exitDy=0;" parent="1" source="4" edge="1">
                    <mxGeometry relative="1" as="geometry">
                        <mxPoint x="460" y="560" as="targetPoint"/>
                        <mxPoint x="460" y="319.99999999999994" as="sourcePoint"/>
                    </mxGeometry>
                </mxCell>
                <mxCell id="4" value="&amp;lt;&amp;lt;Smart Contract&amp;gt;&amp;gt;&lt;br&gt;&lt;br&gt;&lt;b&gt;ERC6123OTC.sol&lt;/b&gt;" style="html=1;align=center;verticalAlign=middle;dashed=0;whiteSpace=wrap;" parent="1" vertex="1">
                    <mxGeometry x="380" y="90" width="160" height="70" as="geometry"/>
                </mxCell>
                <mxCell id="7" style="edgeStyle=none;html=1;" parent="1" source="5" edge="1">
                    <mxGeometry relative="1" as="geometry">
                        <mxPoint x="660" y="560" as="targetPoint"/>
                        <mxPoint x="660" y="319.99999999999994" as="sourcePoint"/>
                    </mxGeometry>
                </mxCell>
                <mxCell id="5" value="&amp;lt;&amp;lt;Smart Contract&amp;gt;&amp;gt;&lt;br&gt;&lt;br&gt;&lt;b&gt;TradeValidator.sol&lt;/b&gt;" style="html=1;align=center;verticalAlign=middle;dashed=0;whiteSpace=wrap;" parent="1" vertex="1">
                    <mxGeometry x="580" y="90" width="160" height="70" as="geometry"/>
                </mxCell>
                <mxCell id="9" style="edgeStyle=none;html=1;" parent="1" edge="1">
                    <mxGeometry relative="1" as="geometry">
                        <mxPoint x="255" y="560" as="targetPoint"/>
                        <mxPoint x="255" y="170" as="sourcePoint"/>
                    </mxGeometry>
                </mxCell>
                <mxCell id="10" style="edgeStyle=none;html=1;" parent="1" edge="1">
                    <mxGeometry relative="1" as="geometry">
                        <mxPoint x="95" y="560" as="targetPoint"/>
                        <mxPoint x="95" y="170" as="sourcePoint"/>
                    </mxGeometry>
                </mxCell>
                <mxCell id="11" value="Blockchain" style="text;html=1;align=center;verticalAlign=middle;whiteSpace=wrap;rounded=0;" parent="1" vertex="1">
                    <mxGeometry x="740" y="40" width="60" height="30" as="geometry"/>
                </mxCell>
                <mxCell id="12" value="inceptTrade" style="endArrow=classic;html=1;" parent="1" edge="1">
                    <mxGeometry width="50" height="50" relative="1" as="geometry">
                        <mxPoint x="90" y="200" as="sourcePoint"/>
                        <mxPoint x="460" y="200" as="targetPoint"/>
                    </mxGeometry>
                </mxCell>
                <mxCell id="13" value="pendingRequest" style="endArrow=none;html=1;startArrow=classic;startFill=1;endFill=0;dashed=1;" parent="1" edge="1">
                    <mxGeometry width="50" height="50" relative="1" as="geometry">
                        <mxPoint x="260" y="220" as="sourcePoint"/>
                        <mxPoint x="460" y="220" as="targetPoint"/>
                    </mxGeometry>
                </mxCell>
                <mxCell id="18" value="confirmedTrade" style="endArrow=classic;html=1;startArrow=none;startFill=0;endFill=1;" parent="1" edge="1">
                    <mxGeometry width="50" height="50" relative="1" as="geometry">
                        <mxPoint x="260" y="240" as="sourcePoint"/>
                        <mxPoint x="460" y="240" as="targetPoint"/>
                    </mxGeometry>
                </mxCell>
                <mxCell id="19" value="performSettlement" style="endArrow=classic;html=1;startArrow=none;startFill=0;endFill=1;" parent="1" edge="1">
                    <mxGeometry width="50" height="50" relative="1" as="geometry">
                        <mxPoint x="260" y="440" as="sourcePoint"/>
                        <mxPoint x="460" y="440" as="targetPoint"/>
                    </mxGeometry>
                </mxCell>
                <mxCell id="22" value="validateTradeSettlement" style="endArrow=classic;html=1;startArrow=none;startFill=0;endFill=1;" parent="1" edge="1">
                    <mxGeometry width="50" height="50" relative="1" as="geometry">
                        <mxPoint x="460" y="240" as="sourcePoint"/>
                        <mxPoint x="660" y="240" as="targetPoint"/>
                    </mxGeometry>
                </mxCell>
                <mxCell id="24" value="callback" style="endArrow=none;html=1;startArrow=classic;startFill=1;endFill=0;dashed=1;" parent="1" edge="1">
                    <mxGeometry width="50" height="50" relative="1" as="geometry">
                        <mxPoint x="460" y="260" as="sourcePoint"/>
                        <mxPoint x="660" y="260" as="targetPoint"/>
                        <mxPoint as="offset"/>
                    </mxGeometry>
                </mxCell>
                <mxCell id="29" style="edgeStyle=none;html=1;" parent="1" source="27" edge="1">
                    <mxGeometry relative="1" as="geometry">
                        <mxPoint x="870" y="560" as="targetPoint"/>
                    </mxGeometry>
                </mxCell>
                <mxCell id="27" value="&amp;lt;&amp;lt;Smart Contract&amp;gt;&amp;gt;&lt;br&gt;&lt;br&gt;&lt;b&gt;TokenA.sol&lt;/b&gt;" style="html=1;align=center;verticalAlign=middle;dashed=0;whiteSpace=wrap;" parent="1" vertex="1">
                    <mxGeometry x="790" y="90" width="160" height="70" as="geometry"/>
                </mxCell>
                <mxCell id="30" style="edgeStyle=none;html=1;" parent="1" source="28" edge="1">
                    <mxGeometry relative="1" as="geometry">
                        <mxPoint x="1080" y="560" as="targetPoint"/>
                    </mxGeometry>
                </mxCell>
                <mxCell id="28" value="&amp;lt;&amp;lt;Smart Contract&amp;gt;&amp;gt;&lt;br&gt;&lt;br&gt;&lt;b&gt;TokenB.sol&lt;/b&gt;" style="html=1;align=center;verticalAlign=middle;dashed=0;whiteSpace=wrap;" parent="1" vertex="1">
                    <mxGeometry x="1000" y="90" width="160" height="70" as="geometry"/>
                </mxCell>
                <mxCell id="31" value="transferFrom CB_A to CP_B" style="endArrow=classic;html=1;startArrow=none;startFill=0;endFill=1;" parent="1" edge="1">
                    <mxGeometry width="50" height="50" relative="1" as="geometry">
                        <mxPoint x="455" y="440" as="sourcePoint"/>
                        <mxPoint x="865" y="440" as="targetPoint"/>
                    </mxGeometry>
                </mxCell>
                <mxCell id="33" value="at InceptTrade both party can cancle the trade without require requesting to cancle to counter party&lt;div&gt;&lt;br&gt;&lt;/div&gt;&lt;div&gt;at initialSettlement if counter party wanted to cancel the trade it&#39;s require to requesting to terminate the trade&lt;/div&gt;&lt;div&gt;&lt;br&gt;&lt;/div&gt;&lt;div&gt;at performSettlement stage trade can&#39;t be cancle&lt;/div&gt;&lt;div&gt;&lt;br&gt;&lt;/div&gt;&lt;div&gt;if requesting to terminate the trade at incepted state, it will requesting to terminate to whole contract program not just cancle the incepted trade&lt;/div&gt;" style="text;html=1;align=left;verticalAlign=middle;whiteSpace=wrap;rounded=0;" parent="1" vertex="1">
                    <mxGeometry x="80" y="660" width="440" height="30" as="geometry"/>
                </mxCell>
                <mxCell id="nANzW3blA1sujsQbnMBi-33" value="InceptTrade #0" style="shape=umlFrame;whiteSpace=wrap;html=1;pointerEvents=0;recursiveResize=0;container=1;collapsible=0;width=160;" vertex="1" parent="1">
                    <mxGeometry x="50" y="160" width="680" height="120" as="geometry"/>
                </mxCell>
                <mxCell id="nANzW3blA1sujsQbnMBi-37" value="performSettlement #2" style="shape=umlFrame;whiteSpace=wrap;html=1;pointerEvents=0;recursiveResize=0;container=1;collapsible=0;width=160;" vertex="1" parent="1">
                    <mxGeometry x="50" y="420" width="1070" height="110" as="geometry"/>
                </mxCell>
                <mxCell id="32" value="transferFrom CB_B to CP_A" style="endArrow=classic;html=1;startArrow=none;startFill=0;endFill=1;" parent="1" edge="1">
                    <mxGeometry width="50" height="50" relative="1" as="geometry">
                        <mxPoint x="459.22" y="460" as="sourcePoint"/>
                        <mxPoint x="1080.7886753216912" y="460" as="targetPoint"/>
                    </mxGeometry>
                </mxCell>
                <mxCell id="nANzW3blA1sujsQbnMBi-44" value="InitialSettlement #1" style="shape=umlFrame;whiteSpace=wrap;html=1;pointerEvents=0;recursiveResize=0;container=1;collapsible=0;width=160;" vertex="1" parent="1">
                    <mxGeometry x="50" y="300" width="680" height="110" as="geometry"/>
                </mxCell>
                <mxCell id="nANzW3blA1sujsQbnMBi-45" value="initialSettlement" style="endArrow=classic;html=1;" edge="1" parent="nANzW3blA1sujsQbnMBi-44">
                    <mxGeometry width="50" height="50" relative="1" as="geometry">
                        <mxPoint x="60" y="44" as="sourcePoint"/>
                        <mxPoint x="421.33331298828125" y="44" as="targetPoint"/>
                    </mxGeometry>
                </mxCell>
                <mxCell id="nANzW3blA1sujsQbnMBi-46" value="validateTradeSettlement" style="endArrow=classic;html=1;startArrow=none;startFill=0;endFill=1;" edge="1" parent="nANzW3blA1sujsQbnMBi-44">
                    <mxGeometry width="50" height="50" relative="1" as="geometry">
                        <mxPoint x="420" y="64" as="sourcePoint"/>
                        <mxPoint x="620" y="64" as="targetPoint"/>
                    </mxGeometry>
                </mxCell>
                <mxCell id="nANzW3blA1sujsQbnMBi-47" value="callback" style="endArrow=none;html=1;startArrow=classic;startFill=1;endFill=0;dashed=1;" edge="1" parent="nANzW3blA1sujsQbnMBi-44">
                    <mxGeometry width="50" height="50" relative="1" as="geometry">
                        <mxPoint x="420" y="80" as="sourcePoint"/>
                        <mxPoint x="620" y="80" as="targetPoint"/>
                        <mxPoint as="offset"/>
                    </mxGeometry>
                </mxCell>
                <mxCell id="nANzW3blA1sujsQbnMBi-48" value="pendingRequest" style="endArrow=none;html=1;startArrow=classic;startFill=1;endFill=0;dashed=1;" edge="1" parent="nANzW3blA1sujsQbnMBi-44">
                    <mxGeometry width="50" height="50" relative="1" as="geometry">
                        <mxPoint x="210" y="80" as="sourcePoint"/>
                        <mxPoint x="411.33331298828125" y="80" as="targetPoint"/>
                    </mxGeometry>
                </mxCell>
            </root>
        </mxGraphModel>
    </diagram>
</mxfile>